<svg xmlns="http://www.w3.org/2000/svg" version="1.1" xmlnsXlink="http://www.w3.org/1999/xlink"
    width="18" height="18" x="0" y="0" viewBox="0 0 512 512"
    style="enable-background:new 0 0 512 512" xmlSpace="preserve" class="">
    <g>
        <path fill="#c379d2"
            d="M426.496 233.227c-8.284 0-15-6.716-15-15v-140c0-8.284 6.716-15 15-15s15 6.716 15 15v140c0 8.284-6.716 15-15 15z"
            opacity="1" data-original="#00347b" class=""></path>
        <path fill="#c379d2"
            d="M85.503 233.227c-8.284 0-15-6.716-15-15v-140c0-8.284 6.716-15 15-15s15 6.716 15 15v140c0 8.284-6.716 15-15 15zM418.986 451.75h-62.993c-8.284 0-15-6.716-15-15s6.716-15 15-15h62.993c34.157 0 63.014-28.165 63.014-61.502V252.25c0-8.284 6.716-15 15-15s15 6.716 15 15v107.997c0 49.6-42.595 91.503-93.014 91.503z"
            opacity="1" data-original="#00429d" class=""></path>
        <path fill="#c379d2"
            d="M99 164.971H45c-24.813 0-45 20.187-45 45v61c0 24.813 20.187 45 45 45h54c8.284 0 15-6.716 15-15v-121c0-8.284-6.716-15-15-15z"
            opacity="1" data-original="#4793ff" class=""></path>
        <path fill="#c379d2"
            d="M467 164.971h-54c-8.284 0-15 6.716-15 15v121c0 8.284 6.716 15 15 15h54c24.813 0 45-20.187 45-45v-61c0-24.813-20.187-45-45-45z"
            opacity="1" data-original="#525cdd" class=""></path>
        <path fill="#f3c7fd"
            d="M394.421 94.95C357.545 58.709 308.387 38.75 256 38.75c-52.425 0-101.6 19.961-138.463 56.207C80.434 131.438 60 180.375 60 232.753v28.994c0 54.59 44.413 99.003 99.003 99.003h193.994c54.591 0 99.003-44.413 99.003-99.003v-28.994c0-52.373-20.448-101.312-57.579-137.803z"
            opacity="1" data-original="#f0f5fa" class=""></path>
        <path fill="#f3c7fd"
            d="M394.421 94.95C357.545 58.709 308.387 38.75 256 38.75v322h96.997c54.591 0 99.003-44.413 99.003-99.003v-28.994c0-52.373-20.448-101.312-57.579-137.803z"
            opacity="1" data-original="#d7e3f0" class=""></path>
        <path fill="#f3c7fd"
            d="M317.5 136.75h-123c-49.35 0-89.5 40.149-89.5 89.5 0 49.35 40.149 89.5 89.5 89.5h123c49.35 0 89.5-40.149 89.5-89.5s-40.15-89.5-89.5-89.5z"
            opacity="1" data-original="#d7e3f0" class=""></path>
        <path fill="#f3c7fd"
            d="M317.5 136.75H256v179h61.5c49.35 0 89.5-40.149 89.5-89.5s-40.15-89.5-89.5-89.5z"
            opacity="1" data-original="#a0b6db" class=""></path>
        <path fill="#591a67" fill-rule="evenodd"
            d="M317.5 166.75h-123c-32.725 0-59.5 26.775-59.5 59.5s26.775 59.5 59.5 59.5h123c32.725 0 59.5-26.774 59.5-59.5s-26.775-59.5-59.5-59.5z"
            clip-rule="evenodd" opacity="1" data-original="#00429d" class=""></path>
        <path fill="#591a67" fill-rule="evenodd"
            d="M317.5 166.75H256v119h61.5c32.725 0 59.5-26.774 59.5-59.5s-26.775-59.5-59.5-59.5z"
            clip-rule="evenodd" opacity="1" data-original="#00347b" class=""></path>
        <path fill="#c379d2"
            d="M197.836 246.749c-8.284 0-15-6.716-15-15v-11c0-8.284 6.716-15 15-15s15 6.716 15 15v11c0 8.284-6.715 15-15 15z"
            opacity="1" data-original="#4793ff" class=""></path>
        <path fill="#c379d2"
            d="M314.163 246.749c-8.284 0-15-6.716-15-15v-11c0-8.284 6.716-15 15-15s15 6.716 15 15v11c0 8.284-6.716 15-15 15z"
            opacity="1" data-original="#525cdd" class=""></path>
        <path fill="#c379d2"
            d="M334 398.25h-33c-20.678 0-37.5 16.822-37.5 37.5s16.822 37.5 37.5 37.5h33c20.678 0 37.5-16.823 37.5-37.5s-16.822-37.5-37.5-37.5z"
            opacity="1" data-original="#00347b" class=""></path>
    </g>
</svg>