<svg xmlns="http://www.w3.org/2000/svg" viewBox="0 0 512 512"><path d="M94.815 474.074L216.229 7.096A9.482 9.482 0 01225.406 0h61.189a9.482 9.482 0 019.177 7.096l121.414 466.978" fill="#ff9b46"/><g fill="#ff823c"><path d="M248.801 0h-23.396a9.482 9.482 0 00-9.177 7.096L94.815 474.074h123.259L246.642 7.096C246.898 2.917 247.785 0 248.801 0z"/><path d="M464.593 474.074H47.407c-5.236 0-9.481 4.245-9.481 9.482v18.963A9.481 9.481 0 0047.407 512h417.185a9.481 9.481 0 009.481-9.481v-18.963a9.48 9.48 0 00-9.48-9.482z"/></g><path d="M199.111 502.519v-18.963c0-5.236 4.245-9.482 9.481-9.482H47.407c-5.236 0-9.481 4.245-9.481 9.482v18.963A9.481 9.481 0 0047.407 512h161.185a9.48 9.48 0 01-9.481-9.481z" fill="#f56e2d"/><g fill="#e4eaf8"><path d="M119.467 379.259h273.066l-14.791-56.889H134.258zM168.77 189.63h174.46l-14.791-56.889H183.561z"/></g><g fill="#c7cfe2"><path d="M168.77 189.63h66.705l3.481-56.889h-55.395zM119.467 379.259h104.407l3.48-56.889h-93.096z"/></g></svg>