<?xml version="1.0" standalone="no"?>
<!DOCTYPE svg PUBLIC "-//W3C//DTD SVG 20010904//EN"
 "http://www.w3.org/TR/2001/REC-SVG-20010904/DTD/svg10.dtd">
<svg version="1.0" xmlns="http://www.w3.org/2000/svg"
 width="500.000000pt" height="500.000000pt" viewBox="0 0 500.000000 500.000000"
 preserveAspectRatio="xMidYMid meet">

<g transform="translate(0.000000,500.000000) scale(0.100000,-0.100000)"
fill="#000000" stroke="none">
<path d="M1243 2673 c-10 -3 -13 -49 -13 -179 0 -147 2 -176 15 -180 27 -11
45 16 45 65 0 38 5 52 25 71 14 13 26 22 28 19 11 -15 112 -146 118 -152 11
-14 49 3 49 22 0 9 -28 55 -62 100 l-61 83 61 55 c62 54 77 88 47 99 -10 4
-48 -24 -110 -81 l-95 -87 0 74 c0 84 -11 106 -47 91z"/>
<path d="M1652 2663 c-126 -62 -134 -249 -13 -330 47 -32 135 -32 182 0 93 62
113 192 44 283 -46 60 -143 82 -213 47z m128 -58 c76 -39 80 -169 8 -219 -36
-26 -93 -20 -129 12 -24 21 -32 38 -36 75 -13 110 68 178 157 132z"/>
<path d="M1982 2668 c-17 -17 -16 -229 2 -271 22 -52 59 -79 114 -85 65 -6
112 17 140 67 19 34 22 54 22 159 0 94 -3 122 -15 132 -12 10 -18 10 -30 0
-12 -10 -15 -38 -15 -132 0 -113 -1 -120 -25 -143 -31 -32 -75 -32 -112 -1
-27 24 -28 27 -31 148 -4 113 -9 137 -32 138 -4 0 -11 -5 -18 -12z"/>
<path d="M2333 2673 c-7 -2 -13 -12 -13 -21 0 -28 133 -334 147 -339 24 -9 39
15 108 177 61 143 67 163 53 176 -8 8 -21 12 -29 9 -9 -3 -37 -62 -64 -131
-26 -69 -52 -121 -56 -117 -4 4 -29 58 -55 118 -57 136 -61 141 -91 128z"/>
<path d="M2712 2672 c-9 -7 -12 -50 -10 -183 l3 -174 110 0 110 0 0 25 c0 24
-2 25 -82 28 l-83 3 0 49 0 50 70 0 c54 0 72 4 76 15 12 30 -15 45 -82 45
l-64 0 0 45 0 44 82 3 c72 3 83 6 86 22 2 10 -2 22 -10 27 -17 11 -189 11
-206 1z"/>
<path d="M3012 2672 c-9 -7 -12 -50 -10 -183 3 -166 4 -174 23 -174 19 0 20 8
25 125 l5 125 95 -122 c91 -117 118 -142 140 -128 13 8 14 352 1 359 -5 4 -16
3 -25 0 -13 -5 -16 -28 -18 -127 l-3 -122 -90 114 c-121 153 -117 149 -143
133z"/>
<path d="M3370 2665 c-23 -28 -4 -45 50 -45 l50 0 0 -138 c0 -105 3 -143 14
-158 12 -15 18 -17 33 -8 16 10 18 29 21 157 l3 146 52 3 c41 2 53 7 55 22 6
30 -16 36 -144 36 -96 0 -124 -3 -134 -15z"/>
<path d="M3805 2643 c-103 -244 -126 -306 -121 -319 10 -26 40 -11 59 29 l17
37 79 0 79 0 19 -37 c20 -42 56 -53 60 -18 1 11 -28 92 -66 180 -54 129 -72
161 -89 163 -16 3 -25 -5 -37 -35z m61 -128 c13 -31 24 -58 24 -60 0 -3 -22
-5 -50 -5 -27 0 -50 3 -50 7 0 11 43 113 47 113 2 0 15 -25 29 -55z"/>
</g>
</svg>
