<svg width="30" height="30" viewBox="0 0 128 128" fill="none" xmlns="http://www.w3.org/2000/svg">
<g clip-path="url(#clip0_369_31)">
<path d="M101.765 16.7704H90.185V11.5899C90.185 9.91384 88.3566 9.15206 86.6805 9.15206H77.6909C75.5578 3.05726 70.2248 0.00986569 64.13 0.00986569C58.1023 -0.216742 52.6196 3.47927 50.5691 9.15206H41.7316C40.0556 9.15206 38.3795 9.91384 38.3795 11.5899V16.7704H26.7991C19.9367 16.8436 14.3226 22.2571 14 29.1122V116.42C14 123.124 20.0948 128 26.7991 128H101.765C108.469 128 114.564 123.124 114.564 116.42V29.1125C114.242 22.2571 108.627 16.8436 101.765 16.7704ZM44.474 15.2469H52.8544C54.3173 15.0684 55.4923 13.9555 55.7496 12.5042C56.6519 8.5746 60.0994 5.75381 64.13 5.64765C68.1232 5.76869 71.5188 8.59823 72.3579 12.5042C72.6311 14.0056 73.8837 15.1328 75.4053 15.2469H84.0904V27.4364H44.474V15.2469ZM108.469 116.42C108.469 119.772 105.117 121.906 101.765 121.906H26.7991C23.447 121.906 20.0948 119.772 20.0948 116.42V29.1125C20.4057 25.6233 23.2965 22.9294 26.7991 22.8655H38.3792V30.6364C38.5402 32.3437 40.0188 33.6208 41.7314 33.5315H86.6803C88.4243 33.6269 89.9493 32.3673 90.1847 30.6364V22.8652H101.765C105.267 22.9294 108.158 25.623 108.469 29.1122V116.42H108.469Z" fill="black"/>
<path d="M52.5514 68.1186C51.4085 66.9138 49.511 66.8459 48.2849 67.9664L38.5332 77.2608L34.4193 72.9944C33.2763 71.7896 31.3789 71.7219 30.1528 72.8421C28.9725 74.0787 28.9725 76.0242 30.1528 77.2608L36.3998 83.6604C36.9405 84.2659 37.7216 84.6007 38.5329 84.5747C39.3367 84.5633 40.1034 84.2346 40.666 83.6604L52.5508 72.3851C53.7291 71.3043 53.8078 69.4727 52.7267 68.2948C52.6713 68.2333 52.6127 68.1746 52.5514 68.1186Z" fill="black"/>
<path d="M96.2793 74.6705H61.2344C59.5513 74.6705 58.187 76.0348 58.187 77.7179C58.187 79.401 59.5513 80.7653 61.2344 80.7653H96.2793C97.9624 80.7653 99.3267 79.401 99.3267 77.7179C99.3267 76.0348 97.9624 74.6705 96.2793 74.6705Z" fill="black"/>
<path d="M52.5514 43.7394C51.4085 42.5346 49.511 42.4666 48.2849 43.5871L38.5332 52.8816L34.4193 48.6151C33.2763 47.4103 31.3789 47.3423 30.1528 48.4628C28.9725 49.6994 28.9725 51.645 30.1528 52.8816L36.3998 59.2811C36.9405 59.8866 37.7216 60.2214 38.5329 60.1954C39.3367 60.184 40.1034 59.8554 40.666 59.2811L52.5508 48.0058C53.7291 46.925 53.8078 45.0935 52.7267 43.9155C52.6713 43.854 52.6127 43.7954 52.5514 43.7394Z" fill="black"/>
<path d="M96.2793 50.2916H61.2344C59.5513 50.2916 58.187 51.6559 58.187 53.339C58.187 55.0221 59.5513 56.3864 61.2344 56.3864H96.2793C97.9624 56.3864 99.3267 55.0221 99.3267 53.339C99.3267 51.6559 97.9624 50.2916 96.2793 50.2916Z" fill="black"/>
<path d="M52.5514 92.4969C51.4085 91.2922 49.511 91.2245 48.2849 92.3447L38.5332 101.639L34.4193 97.3727C33.2763 96.1679 31.3789 96.1002 30.1528 97.2204C28.9725 98.457 28.9725 100.403 30.1528 101.639L36.3998 108.039C36.9405 108.644 37.7216 108.979 38.5329 108.953C39.3367 108.942 40.1034 108.613 40.666 108.039L52.5508 96.7634C53.7291 95.6826 53.8078 93.851 52.7267 92.6731C52.6713 92.6118 52.6127 92.5532 52.5514 92.4969Z" fill="black"/>
<path d="M96.2793 99.0497H61.2344C59.5513 99.0497 58.187 100.414 58.187 102.097C58.187 103.78 59.5513 105.144 61.2344 105.144H96.2793C97.9624 105.144 99.3267 103.78 99.3267 102.097C99.3267 100.414 97.9624 99.0497 96.2793 99.0497Z" fill="black"/>
</g>
<defs>
<clipPath id="clip0_369_31">
<rect width="128" height="128" fill="black"/>
</clipPath>
</defs>
</svg>
